# This file uses centimeters as units for non-parametric coordinates.

g default
v -1.000000 -7.500000 1.000000
v 1.000000 -7.500000 1.000000
v -1.000000 7.500000 1.000000
v 1.000000 7.500000 1.000000
v -1.000000 7.500000 -1.000000
v 1.000000 7.500000 -1.000000
v -1.000000 -7.500000 -1.000000
v 1.000000 -7.500000 -1.000000
vt 0.133220 0.000024
vt 0.266027 -0.000006
vt 0.265876 0.999998
vt 0.133078 1.000027
vt 0.398819 0.000054
vt 0.531621 0.000024
vt 0.531491 1.000027
vt 0.398688 1.000057
vt 0.000415 0.000024
vt 0.000279 1.000027
vn 0.000000 0.000000 1.000000
vn 0.000000 0.000000 1.000000
vn 0.000000 0.000000 1.000000
vn 0.000000 0.000000 1.000000
vn 0.000000 0.000000 -1.000000
vn 0.000000 0.000000 -1.000000
vn 0.000000 0.000000 -1.000000
vn 0.000000 0.000000 -1.000000
vn 1.000000 0.000000 0.000000
vn 1.000000 0.000000 0.000000
vn 1.000000 0.000000 0.000000
vn 1.000000 0.000000 0.000000
vn -1.000000 0.000000 0.000000
vn -1.000000 0.000000 0.000000
vn -1.000000 0.000000 0.000000
vn -1.000000 0.000000 0.000000
s off
g pCube1
f 1/9/1 2/1/2 4/4/3 3/10/4
f 5/8/5 6/3/6 8/2/7 7/5/8
f 2/1/9 8/2/10 6/3/11 4/4/12
f 7/5/13 1/6/14 3/7/15 5/8/16
